<svg width="1600" height="900" viewBox="0 0 1600 900" xmlns="http://www.w3.org/2000/svg">
  <defs>
    <!-- Import Google Font (Poppins) -->
    <style type="text/css">
      @import url('https://fonts.googleapis.com/css2?family=Poppins:wght@500;600;700&display=swap');
      .title { font-family: 'Poppins', sans-serif; font-weight:700; }
      .subtitle { font-family: 'Poppins', sans-serif; font-weight:500; }
      .icon-box { rx:30; filter:url(#glow) }
    </style>

    <!-- Background gradient -->
    <linearGradient id="bg" x1="0" y1="0" x2="1" y2="1">
      <stop offset="0%" stop-color="#0a0f1f"/>
      <stop offset="100%" stop-color="#111827"/>
    </linearGradient>

    <!-- Title Gradient -->
    <linearGradient id="titleGradient" x1="0" y1="0" x2="1" y2="0">
      <stop offset="0%" stop-color="#6a00ff"/>
      <stop offset="100%" stop-color="#d600ff"/>
    </linearGradient>

    <!-- Glow Filter -->
    <filter id="glow" x="-50%" y="-50%" width="200%" height="200%">
      <feGaussianBlur stdDeviation="25" result="blur"/>
      <feBlend in="SourceGraphic" in2="blur" mode="screen"/>
    </filter>
  </defs>

  <!-- Card Background -->
  <rect x="50" y="50" width="1500" height="800" rx="50" fill="url(#bg)" stroke="#334155" stroke-width="2" filter="url(#glow)"/>

  <!-- Title -->
  <text x="800" y="230" font-size="82" class="title" fill="url(#titleGradient)" text-anchor="middle">
    Connect with Me
  </text>

  <!-- ==== ICON ROW ==== -->
  <!-- Twitter -->
  <g transform="translate(350, 350)">
    <rect width="120" height="120" class="icon-box" fill="#1DA1F2"/>
    <path d="M96 39.3c-2.6 1.2-5.3 2-8.2 2.4 2.9-1.7 5.1-4.3 6.2-7.4-2.7 1.6-5.7 2.7-8.9 3.3-2.6-2.8-6.3-4.5-10.4-4.5-7.8 0-14.1 6.3-14.1 14.1 0 1.1.1 2.2.4 3.3-11.7-.6-22.1-6.2-29.1-14.7-1.2 2-1.9 4.3-1.9 6.7 0 4.6 2.3 8.7 5.9 11-2.2-.1-4.3-.7-6.1-1.7v.2c0 6.4 4.6 11.8 10.6 13-1.1.3-2.3.5-3.6.5-.9 0-1.7-.1-2.6-.2 1.7 5.3 6.5 9.2 12.3 9.3-4.5 3.5-10.1 5.6-16.2 5.6-1 0-2-.1-3-.2 5.8 3.7 12.7 5.9 20.1 5.9 24.1 0 37.3-20 37.3-37.3v-1.7c2.5-1.7 5.1-4.2 7-7.1z"
          fill="white" transform="translate(10,10) scale(1.1)"/>
  </g>

  <!-- LinkedIn -->
  <g transform="translate(550, 350)">
    <rect width="120" height="120" class="icon-box" fill="#0A66C2"/>
    <path d="M100 30H20c-5.5 0-10 4.5-10 10v80c0 5.5 4.5 10 10 10h80c5.5 0 10-4.5 10-10V40c0-5.5-4.5-10-10-10zM40 110H30V60h10v50zm-5-57c-3.4 0-6.1-2.8-6.1-6.1 0-3.4 2.8-6.1 6.1-6.1s6.1 2.8 6.1 6.1c0 3.3-2.7 6.1-6.1 6.1zm65 57H90V82c0-6.6-5.4-12-12-12s-12 5.4-12 12v28H56V60h10v7c2.4-4 8.1-7 14-7 11 0 20 9 20 20v30z"
          fill="white" transform="translate(10,10)"/>
  </g>

  <!-- Instagram -->
  <g transform="translate(750, 350)">
    <rect width="120" height="120" class="icon-box" fill="#E1306C"/>
    <path d="M80 30H40c-5.5 0-10 4.5-10 10v40c0 5.5 4.5 10 10 10h40c5.5 0 10-4.5 10-10V40c0-5.5-4.5-10-10-10zm0 55c0 2.8-2.2 5-5 5H45c-2.8 0-5-2.2-5-5V45c0-2.8 2.2-5 5-5h30c2.8 0 5 2.2 5 5v40zm-20-35c-8.3 0-15 6.7-15 15s6.7 15 15 15 15-6.7 15-15-6.7-15-15-15zm17-8c-1.4 0-2.5 1.1-2.5 2.5S75.6 47 77 47s2.5-1.1 2.5-2.5S78.4 42 77 42z"
          fill="white" transform="translate(15,15) scale(1.5)"/>
  </g>

  <!-- Discord -->
  <g transform="translate(950, 350)">
    <rect width="120" height="120" class="icon-box" fill="#5865F2"/>
    <path d="M89 40c-4.4-2-9.1-3.4-14-4l-2 4c-5-1-10-1-15 0l-2-4c-4.9.6-9.6 2-14 4-9 16-11 31-10 48 6 4 13 7 20 9l3-6c-4-1-8-2-12-4l2-2c23 10 47 10 70 0l2 2c-4 2-8 3-12 4l3 6c7-2 14-5 20-9 1-17-1-32-9-48z"
          fill="white" transform="translate(10,10) scale(1.2)"/>
  </g>

  <!-- Twitch -->
  <g transform="translate(1150, 350)">
    <rect width="120" height="120" class="icon-box" fill="#9146FF"/>
    <path d="M35 30L25 50v60h30v10h10l10-10h15l25-25V30H35zm70 50l-15 15H75l-10 10V95H55V45h50v35z"
          fill="white" transform="translate(20,20)"/>
  </g>

  <!-- Subtitle -->
  <text x="800" y="650" font-size="42" class="subtitle" fill="#cbd5e1" text-anchor="middle">
    Let's build something awesome together! 🚀
  </text>
</svg>
